<svg xmlns="http://www.w3.org/2000/svg" viewBox="0 0 32 32" width="32" height="32">
  <defs>
    <linearGradient id="pinkGradient" x1="0%" y1="0%" x2="100%" y2="100%">
      <stop offset="0%" style="stop-color:#ff69b4;stop-opacity:1" />
      <stop offset="100%" style="stop-color:#ff1493;stop-opacity:1" />
    </linearGradient>
  </defs>
  
  <!-- Background -->
  <rect width="32" height="32" fill="#000000"/>
  
  <!-- Left figure (taller, flowing) -->
  <path d="M8 24 Q6 20 8 16 Q10 12 8 8 Q6 4 8 2 Q10 0 12 2 Q14 4 12 6 Q10 8 12 10 Q14 12 12 14 Q10 16 12 18 Q14 20 12 22 Q10 24 8 24" 
        fill="url(#pinkGradient)" 
        stroke="#ff69b4" 
        stroke-width="0.5"/>
  
  <!-- Right figure (shorter, compact) -->
  <path d="M24 24 Q26 20 24 16 Q22 12 24 8 Q26 4 24 2 Q22 0 20 2 Q18 4 20 6 Q22 8 20 10 Q18 12 20 14 Q22 16 20 18 Q18 20 20 22 Q22 24 24 24" 
        fill="url(#pinkGradient)" 
        stroke="#ff69b4" 
        stroke-width="0.5"/>
  
  <!-- Central heart -->
  <path d="M16 20 Q14 18 12 16 Q14 14 16 12 Q18 14 20 16 Q18 18 16 20 Z" 
        fill="#ff1493" 
        stroke="#ff69b4" 
        stroke-width="0.3"/>
</svg>
